<svg width="90" height="31" viewBox="0 0 90 31" fill="none" xmlns="http://www.w3.org/2000/svg">
<path fill-rule="evenodd" clip-rule="evenodd" d="M15.9257 27.84L15.7924 27.9187L10.5271 31L5.26357 27.9187L0 24.8392V19.906L5.51974 21.625L10.5271 24.5559L15.9257 27.84Z" fill="#F41616"/>
<path fill-rule="evenodd" clip-rule="evenodd" d="M5.52839 28.0743L5.26357 27.9187L0 24.8392V18.6783V18.4807V12.5193V12.3199V6.16083L5.83302 6.78338L5.51973 9.37502V10.9122V15.2351V15.7649V20.3152V21.625L5.52839 28.0743Z" fill="#F41616"/>
<path fill-rule="evenodd" clip-rule="evenodd" d="M10.5271 0L15.3182 2.80324L10.5271 6.44412L5.51974 9.37502L0 12.876V12.5193V12.3199V6.16083L5.26357 3.07954L10.5271 0Z" fill="#F41616"/>
<path fill-rule="evenodd" clip-rule="evenodd" d="M10.5272 0L15.7925 3.07954L21.0561 6.16083V12.3199V12.5193V12.5385L15.5035 9.35579L10.5272 6.44412L5.26367 3.07954L10.5272 0Z" fill="#F2F2F2"/>
<path fill-rule="evenodd" clip-rule="evenodd" d="M21.0559 6.16083V12.3199V12.5193V12.5385L16.0295 15.4991L10.6274 18.7745V12.2255L15.5033 9.35578L21.0559 6.16083Z" fill="#F41616"/>
<path fill-rule="evenodd" clip-rule="evenodd" d="M16.0295 15.4991L21.0559 18.4597V18.4807V18.6783V24.8392L15.5033 21.6442L10.6274 18.7745V12.2255L16.0295 15.4991Z" fill="#F2F2F2"/>
<path fill-rule="evenodd" clip-rule="evenodd" d="M21.0562 18.4807V18.6783V24.8392L15.9259 27.84L10.5273 24.5559L15.5036 21.6442L21.0562 18.4807Z" fill="#F41616"/>
<path d="M39.9672 11.3214C40.0987 11.9282 40.1645 12.6364 40.1645 13.4426V14.2418C40.1645 15.737 40.0364 16.7442 39.7802 17.2636C38.9961 19.0998 37.3068 20.0179 34.7105 20.0179C34.3799 20.0406 33.7897 20.0109 32.9398 19.9287C32.5954 19.885 32.1731 19.836 31.6746 19.7836V24.7937H27.4634V7.75569L33.17 7.64377H34.7088C37.0766 7.64377 38.6707 8.39573 39.4912 9.89965C39.7075 10.3438 39.865 10.8177 39.9672 11.3214ZM36.3393 13.1208C36.3393 12.2325 36.2043 11.6292 35.9325 11.3109C35.6608 11.0293 35.2402 10.8562 34.6672 10.788C34.0303 10.7076 33.0333 10.7286 31.6763 10.8545V16.676C33.1493 16.8457 34.1913 16.8981 34.7988 16.8317C35.2748 16.788 35.6158 16.6428 35.8217 16.398C36.1662 16.0273 36.3393 15.4467 36.3393 14.6545V13.1208Z" fill="#F2F2F2"/>
<path d="M53.8852 24.7972H43.77V7.73295H48.047V21.4746H53.5442L53.8852 24.7972Z" fill="#F2F2F2"/>
<path d="M68.9905 24.7972L68.1995 22.1758H62.3059L61.5357 24.7972H56.7637L62.91 7.7347H67.6387L73.7417 24.7972H68.9905ZM65.2518 11.7096L63.0865 19.0193H67.4189L65.2518 11.7096Z" fill="#F2F2F2"/>
<path d="M78.5328 24.7972L80.6323 19.4985L76.0576 7.75569H80.7863L83.0399 14.7874L85.2935 7.75569H89.9997L83.2598 24.7972H78.5328Z" fill="#F2F2F2"/>
</svg>
